<?xml version="1.0" encoding="utf-8"?>
<!-- Generator: Adobe Illustrator 21.0.2, SVG Export Plug-In . SVG Version: 6.00 Build 0)  -->
<svg version="1.1" id="Layer_1" xmlns="http://www.w3.org/2000/svg" xmlns:xlink="http://www.w3.org/1999/xlink" x="0px" y="0px"
	 viewBox="0 0 204 351" style="enable-background:new 0 0 204 351;" xml:space="preserve">
<style type="text/css">
	.st0{fill:#25B351;}
</style>
<g>
	<polygon class="st0" points="59.9,23.9 37.4,23.9 37.4,303 59.9,321.7 82.5,303 82.5,23.9 	"/>
	<path d="M59.9,325.8l-25.7-21.3V20.8h51.5v283.8L59.9,325.8z M40.6,301.5l19.4,16l19.4-16V27.1H40.6V301.5z"/>
</g>
<g>
	<polygon class="st0" points="152.5,23.9 129.9,23.9 129.9,303 152.5,321.7 175,303 175,23.9 	"/>
	<path d="M152.5,325.8l-25.7-21.3V20.8h51.5v283.8L152.5,325.8z M133.1,301.5l19.4,16l19.4-16V27.1h-38.7V301.5z"/>
</g>
</svg>
